<svg width="32" height="32" viewBox="0 0 32 32" xmlns="http://www.w3.org/2000/svg">
  <defs>
    <radialGradient id="bgGradient" cx="50%" cy="50%" r="50%">
      <stop offset="0%" style="stop-color:#1a1a1a;stop-opacity:1" />
      <stop offset="100%" style="stop-color:#000000;stop-opacity:1" />
    </radialGradient>
    <filter id="redGlow" x="-50%" y="-50%" width="200%" height="200%">
      <feGaussianBlur stdDeviation="1.5" result="coloredBlur"/>
      <feMerge> 
        <feMergeNode in="coloredBlur"/>
        <feMergeNode in="SourceGraphic"/>
      </feMerge>
    </filter>
    <filter id="greenGlow" x="-50%" y="-50%" width="200%" height="200%">
      <feGaussianBlur stdDeviation="0.8" result="coloredBlur"/>
      <feMerge> 
        <feMergeNode in="coloredBlur"/>
        <feMergeNode in="SourceGraphic"/>
      </feMerge>
    </filter>
  </defs>
  
  <!-- Background circle -->
  <circle cx="16" cy="16" r="16" fill="url(#bgGradient)"/>
  
  <!-- Circuit patterns -->
  <g stroke="#2ECC71" stroke-width="0.8" fill="none" opacity="0.7" filter="url(#greenGlow)">
    <!-- Left circuits -->
    <path d="M1 6 L5 6 L5 10 L7 10 L7 12"/>
    <path d="M1 16 L3 16 L3 18 L5 18 L5 20"/>
    <path d="M1 26 L4 26 L4 22 L6 22"/>
    <circle cx="5" cy="6" r="0.8" fill="#2ECC71"/>
    <circle cx="3" cy="16" r="0.8" fill="#2ECC71"/>
    <circle cx="4" cy="26" r="0.8" fill="#2ECC71"/>
    
    <!-- Right circuits -->
    <path d="M31 6 L27 6 L27 10 L25 10 L25 12"/>
    <path d="M31 16 L29 16 L29 18 L27 18 L27 20"/>
    <path d="M31 26 L28 26 L28 22 L26 22"/>
    <circle cx="27" cy="6" r="0.8" fill="#2ECC71"/>
    <circle cx="29" cy="16" r="0.8" fill="#2ECC71"/>
    <circle cx="28" cy="26" r="0.8" fill="#2ECC71"/>
  </g>
  
  <!-- TG Text with enhanced glow effect -->
  <g filter="url(#redGlow)">
    <!-- T -->
    <path d="M8 10 L8 12 L10 12 L10 22 L12 22 L12 12 L14 12 L14 10 Z" fill="#E53935"/>
    <!-- G -->
    <path d="M18 10 C16 10 16 12 16 14 L16 18 C16 20 16 22 18 22 L22 22 L22 20 L20 20 L20 18 L22 18 L22 16 L18 16 L18 14 L22 14 L22 12 C22 10 20 10 18 10 Z" fill="#E53935"/>
  </g>
</svg>